# xmcd
#
# Track frame offsets:
#	150
#	15647
#	30650
#	44179
#	61528
#	80379
#	102325
#	116091
#	129822
#	143363
#	159879
#	173679
#	188569
#	205099
#	218801
#	235603
#	249869
#	262914
#
# Disc length: 3692 seconds
#
# Revision: 1
# Processed by: cddbd v1.5.2PL0 Copyright (c) Steve Scherf et al.
# Submitted via: audiograbber 1.83.01
#
DISCID=d80e6a12
DTITLE=Kevadhitt 2005 - Kevadhitt 2005
DYEAR=2005
DGENRE=Pop
TTITLE0=Dynamint - Tormitüdrukud
TTITLE1=Vanilla Ninja - I Know
TTITLE2=Rebecca - Have You Ever
TTITLE3=Kemo feat. Dynamint - Sinule Kallis
TTITLE4=Pasadena - Kihutaja (Bailando)
TTITLE5=Run A Way - Su Juurde Tahan Jääda
TTITLE6=Airi Ojamets - Dream In A Dream
TTITLE7=pResident - Ime (Break My Stride)
TTITLE8=Slide-Fifty feat. Liisi Koikson - Dreams Won't Come True
TTITLE9=2 Wild - Tantsin Veel
TTITLE10=Stellah - Oh Kallis Tea
TTITLE11=PS Troika - Kopamees (Cotton-Eye Joe)
TTITLE12=Wismari Poisid - Rännumees
TTITLE13=Blue Dragon feat. Ly Lumiste - The Sun Of Summer
TTITLE14=Sulo - Armastusest Ei Loobu Eal (I Can't Get Enough)
TTITLE15=Pixie Twins - Sind Ikka Armastan
TTITLE16=Julia Boman - Nevermore Island
TTITLE17=Vinland - Salajane Ruum
EXTD=
EXTT0=
EXTT1=
EXTT2=
EXTT3=
EXTT4=
EXTT5=
EXTT6=
EXTT7=
EXTT8=
EXTT9=
EXTT10=
EXTT11=
EXTT12=
EXTT13=
EXTT14=
EXTT15=
EXTT16=
EXTT17=
PLAYORDER=
